<svg width="30" height="30" viewBox="0 0 30 30" fill="none" xmlns="http://www.w3.org/2000/svg">
<rect x="0.5" y="0.5" width="29" height="29" rx="9.5" stroke="white"/>
<path d="M18.6202 9C19.8314 9.01137 20.9842 9.43862 21.8101 10.1823C22.636 10.926 23.0629 11.9211 22.9925 12.906L22.9914 17.064C23.0629 18.0789 22.636 19.074 21.8101 19.8177C20.9842 20.5614 19.8314 20.9886 18.6135 21H11.3649C8.82932 21 7 19.2923 7 17.094V12.906C7 10.7077 8.82932 9 11.3649 9H18.6202ZM18.6067 10.0189H11.3649C9.53023 10.0189 8.21395 11.2477 8.21395 12.906V17.094C8.21395 18.7523 9.53023 19.9811 11.3649 19.9811H18.6067C19.4858 19.9729 20.3226 19.6627 20.9221 19.1229C21.5216 18.5831 21.8315 17.8608 21.7785 17.094L21.7796 12.8759C21.8315 12.1392 21.5216 11.4169 20.9221 10.8771C20.3226 10.3373 19.4858 10.0271 18.6067 10.0189ZM19.8192 12.7589C20.0097 12.9586 19.992 13.2417 19.7906 13.4237L19.7247 13.475L16.4391 15.6824C15.6411 16.2045 14.5385 16.2306 13.7064 15.7584L13.5774 15.6797L10.2698 13.4764C10.0072 13.3014 9.9633 12.981 10.1717 12.7606C10.3611 12.5602 10.6939 12.5115 10.9501 12.6357L11.0245 12.6782L14.3279 14.8787C14.6982 15.1211 15.206 15.1397 15.5926 14.9379L15.6866 14.8828L18.9661 12.6795C19.2278 12.5037 19.6097 12.5392 19.8192 12.7589Z" fill="white"/>
<rect x="19.8889" y="6.66675" width="5.55556" height="5.55556" rx="2.77778" fill="#F51111"/>
</svg>
