<svg width="39" height="38" viewBox="0 0 39 38" fill="none" xmlns="http://www.w3.org/2000/svg">
<g filter="url(#filter0_d_1009_1016)">
<rect x="4" width="31" height="30" rx="15" fill="#DADADA"/>
</g>
<path d="M20 16L19.6464 16.3536L20 16.7071L20.3536 16.3536L20 16ZM20.5 7C20.5 6.72386 20.2761 6.5 20 6.5C19.7239 6.5 19.5 6.72386 19.5 7L20.5 7ZM14.6464 11.3536L19.6464 16.3536L20.3536 15.6464L15.3536 10.6464L14.6464 11.3536ZM20.3536 16.3536L25.3536 11.3536L24.6464 10.6464L19.6464 15.6464L20.3536 16.3536ZM20.5 16L20.5 7L19.5 7L19.5 16L20.5 16Z" fill="#222222"/>
<path d="M13 18L13 19C13 20.1046 13.8954 21 15 21L25 21C26.1046 21 27 20.1046 27 19V18" stroke="#222222"/>
<defs>
<filter id="filter0_d_1009_1016" x="0" y="0" width="39" height="38" filterUnits="userSpaceOnUse" color-interpolation-filters="sRGB">
<feFlood flood-opacity="0" result="BackgroundImageFix"/>
<feColorMatrix in="SourceAlpha" type="matrix" values="0 0 0 0 0 0 0 0 0 0 0 0 0 0 0 0 0 0 127 0" result="hardAlpha"/>
<feOffset dy="4"/>
<feGaussianBlur stdDeviation="2"/>
<feComposite in2="hardAlpha" operator="out"/>
<feColorMatrix type="matrix" values="0 0 0 0 0 0 0 0 0 0 0 0 0 0 0 0 0 0 0.25 0"/>
<feBlend mode="normal" in2="BackgroundImageFix" result="effect1_dropShadow_1009_1016"/>
<feBlend mode="normal" in="SourceGraphic" in2="effect1_dropShadow_1009_1016" result="shape"/>
</filter>
</defs>
</svg>
