<svg width="32" height="32" viewBox="0 0 32 32" fill="none" xmlns="http://www.w3.org/2000/svg">
<path d="M12 21.3333H8.33658C7.40163 21.3333 6.93415 21.3333 6.56557 21.4865C6.07742 21.6894 5.68947 22.0774 5.48654 22.5655C5.33331 22.9341 5.33331 23.4016 5.33331 24.3365V24.3365C5.33331 25.453 5.33331 26.0112 5.5268 26.4185C5.78304 26.9579 6.2669 27.3546 6.84607 27.5001C7.28339 27.6099 7.83079 27.5004 8.92557 27.2815L9.32037 27.2025C10.3395 26.9987 10.8491 26.8968 11.2186 26.6128C11.4617 26.4261 11.6586 26.1859 11.794 25.9109C12 25.4929 12 24.9733 12 23.9339V11.2791C12 9.70938 12 8.9245 12.4533 8.37155C12.9066 7.81859 13.6762 7.66467 15.2155 7.35681L20.5488 6.29015C22.7625 5.84742 23.8693 5.62606 24.6013 6.22618C25.3333 6.82629 25.3333 7.95502 25.3333 10.2125V11.9999M25.3333 18.6666V21.2672C25.3333 22.3066 25.3333 22.8263 25.1274 23.2443C24.9919 23.5192 24.795 23.7594 24.5519 23.9462C24.1825 24.2301 23.6729 24.332 22.6537 24.5358L22.2589 24.6148C21.1641 24.8338 20.6167 24.9432 20.1794 24.8334C19.6002 24.6879 19.1164 24.2912 18.8601 23.7518C18.6666 23.3446 18.6666 22.7863 18.6666 21.6699V21.6699C18.6666 20.7349 18.6666 20.2674 18.8199 19.8988C19.0228 19.4107 19.4108 19.0227 19.8989 18.8198C20.2675 18.6666 20.735 18.6666 21.6699 18.6666H25.3333ZM25.3333 18.6666V11.9999M25.3333 11.9999L12 14.6666" stroke="white"/>
</svg>
